<svg xmlns="http://www.w3.org/2000/svg" xmlns:svg="http://www.w3.org/2000/svg" id="svg8" width="22" height="22" version="1.1" viewBox="0 0 5.821 5.821"><metadata id="metadata5"/><g id="layer1" transform="translate(-80.641517,-138.91376)"><g style="font-style:normal;font-variant:normal;font-weight:400;font-stretch:normal;font-size:1.75723267px;line-height:1.25;font-family:Manjari;-inkscape-font-specification:Manjari;letter-spacing:0;word-spacing:0;fill:#616161;fill-opacity:1;stroke:none;stroke-width:.04393082" id="text817-7" aria-label="[v]"><path style="font-style:normal;font-variant:normal;font-weight:700;font-stretch:normal;font-family:Manjari;-inkscape-font-specification:'Manjari Bold';fill:#616161;fill-opacity:1;stroke-width:.04393082" id="path13" d="m 80.898924,139.42643 c -0.141574,0 -0.257407,0.11584 -0.257407,0.25741 l 0.0051,4.28068 c 0,0.14157 0.115833,0.25741 0.257407,0.25741 l 1.140313,0.003 h 0.0026 c 0.141573,0 0.257407,-0.11583 0.257407,-0.2574 0,-0.14158 -0.115834,-0.25741 -0.257407,-0.25741 h -0.0026 l -0.882906,-0.003 -0.0051,-3.76586 h 0.888054 c 0.141574,0 0.257408,-0.11584 0.257408,-0.25741 0,-0.14157 -0.115834,-0.25741 -0.257408,-0.25741 z"/><path style="font-style:normal;font-variant:normal;font-weight:400;font-stretch:normal;font-family:Manjari;-inkscape-font-specification:Manjari;fill:#616161;fill-opacity:1;stroke-width:.04393082" id="path15" d="m 82.34212,140.52814 c 0,0.0206 0.0051,0.0566 0.01544,0.0772 l 1.029629,2.33211 c 0.02574,0.0592 0.100388,0.10811 0.16474,0.10811 0.06435,0 0.139,-0.0489 0.164741,-0.10811 l 1.029628,-2.32439 c 0.0103,-0.0206 0.01802,-0.0541 0.01802,-0.0746 0,-0.10039 -0.0798,-0.18018 -0.180185,-0.18018 -0.06693,0 -0.141574,0.0515 -0.167315,0.11068 l -0.862314,1.95115 -0.867462,-1.96144 c -0.02574,-0.0618 -0.09781,-0.11069 -0.16474,-0.11069 -0.100389,0 -0.180185,0.0824 -0.180185,0.18019 z"/><path style="font-style:normal;font-variant:normal;font-weight:700;font-stretch:normal;font-family:Manjari;-inkscape-font-specification:'Manjari Bold';fill:#616161;fill-opacity:1;stroke-width:.04393082" id="path17" d="m 86.204943,139.42386 h -1.145462 c -0.141574,0 -0.257407,0.11583 -0.257407,0.25741 0,0.14157 0.115833,0.2574 0.257407,0.2574 h 0.888055 l -0.0051,3.76587 -0.882907,0.003 h -0.0026 c -0.141574,0 -0.257407,0.11584 -0.257407,0.25741 0,0.14157 0.115833,0.25741 0.257407,0.25741 h 0.0026 l 1.140314,-0.003 c 0.141574,0 0.257407,-0.11583 0.257407,-0.2574 l 0.0051,-4.28068 c 0,-0.14158 -0.115833,-0.25741 -0.257407,-0.25741 z"/></g></g></svg>